<svg width="24" height="24" viewBox="0 0 24 24" fill="none" xmlns="http://www.w3.org/2000/svg">
<g clip-path="url(#clip0_418_1599)">
<path d="M24 12C24 18.6272 18.6272 24 12 24C5.37281 24 0 18.6277 0 12C0 5.37234 5.37281 0 12 0C18.6272 0 24 5.37281 24 12Z" fill="#FF9F29"/>
<path d="M14.446 16.6227L14.2814 17.2973C13.7871 17.4919 13.393 17.6405 13.0992 17.743C12.7688 17.8509 12.4226 17.9027 12.075 17.8963C11.4766 17.8963 11.0117 17.7504 10.6805 17.4585C10.5201 17.322 10.3922 17.1515 10.3061 16.9593C10.2199 16.7671 10.1778 16.5581 10.1827 16.3476C10.1828 16.1683 10.1954 15.9893 10.2202 15.8118C10.2449 15.6296 10.2847 15.4238 10.3397 15.1944L10.9571 13.0087C11.0124 12.7991 11.0588 12.6008 11.0977 12.4138C11.1328 12.2449 11.1515 12.073 11.1535 11.9005C11.1535 11.6215 11.0961 11.4269 10.9814 11.3169C10.8667 11.2069 10.6466 11.1521 10.321 11.1524C10.1546 11.1532 9.98927 11.1783 9.83018 11.2269C9.66236 11.2771 9.51893 11.324 9.39893 11.3676L9.56252 10.694C9.96658 10.5296 10.3533 10.389 10.7227 10.2721C11.061 10.1601 11.4145 10.1008 11.7708 10.0963C12.3646 10.0963 12.8222 10.2398 13.1438 10.5266C13.4667 10.8135 13.6271 11.1866 13.6271 11.6455C13.6271 11.7393 13.6167 11.9076 13.5942 12.1471C13.5741 12.3702 13.5327 12.5909 13.4705 12.8062L12.8555 14.9844C12.8002 15.1817 12.7551 15.3816 12.7205 15.5835C12.6865 15.7512 12.6664 15.9215 12.6605 16.0926C12.6605 16.3816 12.725 16.5787 12.8541 16.6837C12.9831 16.7887 13.2072 16.841 13.5263 16.8407C13.6984 16.8376 13.8693 16.8113 14.0344 16.7624C14.175 16.7268 14.3127 16.6801 14.446 16.6227ZM14.6025 7.4821C14.6045 7.66503 14.5671 7.84626 14.4929 8.0135C14.4188 8.18074 14.3096 8.3301 14.1727 8.45147C13.8886 8.70912 13.5188 8.85184 13.1353 8.85184C12.7518 8.85184 12.3821 8.70912 12.098 8.45147C11.9615 8.32912 11.8523 8.17937 11.7775 8.01198C11.7027 7.84459 11.6641 7.66332 11.6641 7.47999C11.6641 7.29666 11.7027 7.11539 11.7775 6.948C11.8523 6.78061 11.9615 6.63086 12.098 6.5085C12.381 6.24867 12.7512 6.10449 13.1353 6.10449C13.5195 6.10449 13.8897 6.24867 14.1727 6.5085C14.3096 6.63096 14.4187 6.78126 14.4927 6.94934C14.5668 7.11742 14.6041 7.29938 14.6021 7.48304L14.6025 7.4821Z" fill="white"/>
</g>
<defs>
<clipPath id="clip0_418_1599">
<rect width="24" height="24" fill="white"/>
</clipPath>
</defs>
</svg>
