<svg xmlns="http://www.w3.org/2000/svg" width="16" height="16" fill="none" viewBox="0 0 16 16"><g clip-path="url(#clip0_418_1580)"><path fill="#161616" d="M8 0C6.41775 0 4.87103 0.469192 3.55544 1.34824C2.23985 2.22729 1.21447 3.47672 0.608967 4.93853C0.00346625 6.40034 -0.15496 8.00887 0.153721 9.56072C0.462403 11.1126 1.22433 12.538 2.34315 13.6569C3.46197 14.7757 4.88743 15.5376 6.43928 15.8463C7.99113 16.155 9.59966 15.9965 11.0615 15.391C12.5233 14.7855 13.7727 13.7602 14.6518 12.4446C15.5308 11.129 16 9.58225 16 8C16 5.87827 15.1571 3.84344 13.6569 2.34315C12.1566 0.842855 10.1217 0 8 0ZM8 14.6675C6.6813 14.6675 5.3922 14.2765 4.29574 13.5438C3.19927 12.8112 2.34468 11.7699 1.84004 10.5515C1.33539 9.33321 1.20335 7.9926 1.46062 6.69924C1.71788 5.40587 2.3529 4.21783 3.28537 3.28537C4.21784 2.3529 5.40587 1.71788 6.69924 1.46061C7.99261 1.20335 9.33322 1.33539 10.5515 1.84003C11.7699 2.34468 12.8112 3.19927 13.5438 4.29574C14.2765 5.3922 14.6675 6.68129 14.6675 8C14.6642 9.76732 13.9607 11.4613 12.711 12.711C11.4613 13.9607 9.76732 14.6642 8 14.6675Z"/><path fill="#161616" d="M10.8875 8.66754L9.11252 7.33254L8.66752 7.00004V3.33254C8.66752 3.15551 8.59719 2.98573 8.47201 2.86055C8.34683 2.73536 8.17705 2.66504 8.00002 2.66504C7.82299 2.66504 7.65321 2.73536 7.52803 2.86055C7.40285 2.98573 7.33252 3.15551 7.33252 3.33254V7.33254C7.33302 7.38482 7.33974 7.43685 7.35252 7.48754C7.3645 7.53646 7.383 7.58355 7.40752 7.62754C7.42471 7.67136 7.44922 7.71194 7.48002 7.74754C7.48002 7.74754 7.48002 7.76754 7.50002 7.77254C7.52772 7.80485 7.55872 7.83418 7.59252 7.86004L7.62002 7.88004L8.66002 8.66004L10.26 9.86004C10.3749 9.94757 10.5156 9.99421 10.66 9.99254C10.7997 9.99202 10.9357 9.9477 11.0488 9.86582C11.162 9.78394 11.2466 9.66863 11.2908 9.53613C11.3349 9.40362 11.3364 9.2606 11.295 9.1272C11.2536 8.99381 11.1714 8.87676 11.06 8.79254L10.8875 8.66754Z"/></g><defs><clipPath id="clip0_418_1580"><rect width="16" height="16" fill="#fff"/></clipPath></defs></svg>